<svg width="32" height="32" viewBox="0 0 32 32" fill="none" xmlns="http://www.w3.org/2000/svg">
<g clip-path="url(#clip0_55_2)">
<path d="M0.347418 9.58398L4.50064 6.53917L2.79128 5.05683H0.347418V2.62633L11.2313 2.62633V5.05683H6.10317L11.2313 9.41038V12.3884L6.30349 8.115L0.347418 12.6154V9.58398ZM11.2313 13.6594V16.0899H0.347418V13.6594H11.2313ZM0.347418 18.0152H11.2313V20.0451L4.68761 25.4803H11.3648V27.9108H0.480963V25.881L7.02463 20.4457H0.347418V18.0152Z" fill="#20367F"/>
<path opacity="0.944" fill-rule="evenodd" clip-rule="evenodd" d="M15.0478 13.1305C15.1584 13.1305 15.269 13.1305 15.3796 13.1305C16.5042 13.2182 17.5787 13.5065 18.603 13.9956C19.1392 14.2616 19.6645 14.5421 20.1791 14.837C21.7859 14.4168 23.4094 14.3417 25.0496 14.6118C27.0377 14.8927 28.9179 15.501 30.6905 16.4368C31.0005 16.609 31.3007 16.7947 31.5911 16.9938C31.5911 17.0254 31.5911 17.057 31.5911 17.0886C31.2264 17.7814 30.7602 18.4015 30.1927 18.9491C29.4881 19.5543 28.6822 19.973 27.7752 20.2052C27.3663 20.3154 26.9555 20.4181 26.5428 20.5134C25.3755 20.7369 24.2062 20.9502 23.035 21.1533C22.3489 21.2921 21.6695 21.458 20.9968 21.651C21.82 22.2105 22.2901 22.9887 22.407 23.9856C22.4188 24.2461 22.4228 24.5069 22.4188 24.7677C23.1526 24.609 23.8952 24.5379 24.6467 24.5544C25.5476 24.5458 26.4404 24.6248 27.3249 24.7914C27.3289 24.8227 27.3211 24.8504 27.3012 24.8743C26.4497 25.1895 25.6281 25.5687 24.8363 26.012C24.3562 26.2946 23.9414 26.654 23.592 27.0904C23.2663 27.6118 23.1794 28.1728 23.3313 28.7732C23.4539 29.2635 23.5763 29.7534 23.6987 30.2426C23.6197 30.2426 23.5407 30.2426 23.4617 30.2426C22.8219 30.1518 22.1978 29.9898 21.5893 29.7567C20.9821 29.4956 20.5042 29.0888 20.1554 28.5361C20.0033 28.2162 19.9125 27.8805 19.8828 27.5289C18.4929 27.2131 17.2604 26.5969 16.1855 25.6802C16.0381 25.5447 15.9038 25.3985 15.7825 25.2417C15.8225 25.2164 15.862 25.2204 15.901 25.2536C17.0975 26.0556 18.4089 26.5849 19.8354 26.8415C20.6546 26.966 21.4763 26.9818 22.3003 26.8889C21.2361 26.8069 20.1854 26.641 19.1481 26.3912C17.9582 26.0964 16.8838 25.575 15.9247 24.8269C15.2485 24.2607 14.7626 23.5615 14.4671 22.7294C13.4005 23.2527 12.3616 23.8216 11.3505 24.4359C11.3263 24.4194 11.3026 24.4037 11.2794 24.3885C11.2794 24.2621 11.2794 24.1357 11.2794 24.0093C11.4551 23.3181 11.7751 22.7019 12.2392 22.1606C12.8562 21.4959 13.5672 20.9587 14.3723 20.5489C14.7253 19.0723 15.464 17.828 16.5884 16.816C17.0053 16.4496 17.4478 16.1178 17.9156 15.8206C17.4412 15.9313 16.9988 16.1209 16.5884 16.3894C16.5647 16.4052 16.541 16.4052 16.5173 16.3894C16.2759 15.887 15.9362 15.4604 15.4981 15.1095C14.7892 14.5683 14.0149 14.1337 13.1754 13.806C13.1529 13.789 13.149 13.7692 13.1636 13.7467C13.7346 13.3628 14.3626 13.1574 15.0478 13.1305ZM28.8655 16.8753C29.3085 16.8819 29.7509 16.9016 30.1927 16.9345C30.4815 16.9599 30.7659 17.0073 31.046 17.0767C30.6173 17.6952 30.1196 18.2561 29.5528 18.7595C29.3469 18.9417 29.1218 19.0957 28.8773 19.2217C28.1818 18.9604 27.4668 18.8853 26.7324 18.9965C26.0864 19.0907 25.4701 19.2803 24.8837 19.5653C24.8195 19.6049 24.8234 19.6246 24.8956 19.6246C25.9454 19.3315 27.008 19.2722 28.0834 19.4468C28.1559 19.4669 28.227 19.4906 28.2967 19.5179C27.954 19.6769 27.5985 19.8034 27.2301 19.8971C26.9306 19.9712 26.6304 20.0424 26.3295 20.1104C25.0068 20.373 23.6796 20.61 22.3477 20.8215C21.242 21.007 20.1834 21.3388 19.1718 21.8169C18.7553 22.0358 18.4038 22.3321 18.1171 22.7057C17.8526 23.1954 17.821 23.701 18.0223 24.2226C18.3301 24.8308 18.7449 25.3562 19.2666 25.7987C19.4843 25.9668 19.6976 26.1406 19.9065 26.3201C18.6646 26.0624 17.5427 25.5489 16.541 24.7795C16.0535 24.3615 15.6782 23.8598 15.4152 23.2745C15.0105 22.1978 15.1527 21.2024 15.8418 20.2882C16.4025 19.6246 17.078 19.115 17.8682 18.7595C18.4474 18.4901 19.0478 18.2926 19.6695 18.167C19.3721 18.5551 19.1192 18.9699 18.9111 19.4113C18.9804 19.4122 19.0436 19.3925 19.1007 19.352C20.333 18.649 21.5576 17.934 22.7743 17.2071C22.7822 17.2189 22.7901 17.2308 22.798 17.2426C22.7144 17.5784 22.6512 17.9181 22.6084 18.2618C22.6148 18.2999 22.6346 18.3275 22.6677 18.3447C24.6344 17.4277 26.7003 16.9378 28.8655 16.8753ZM18.7689 22.7768C19.807 22.9318 20.755 23.307 21.613 23.9026C21.8727 24.107 22.09 24.3479 22.2648 24.6255C22.2958 24.6787 22.3116 24.734 22.3122 24.7914C21.5476 24.9878 20.8919 25.3671 20.345 25.929C19.8155 25.6403 19.3414 25.2769 18.9229 24.8388C18.6265 24.4867 18.4645 24.0798 18.4371 23.6182C18.4464 23.2956 18.5571 23.0152 18.7689 22.7768Z" fill="#20367F"/>
</g>
<defs>
<clipPath id="clip0_55_2">
<rect width="32" height="32" fill="white"/>
</clipPath>
</defs>
</svg>
