<svg width="240" height="240" viewBox="0 0 240 240" fill="none" xmlns="http://www.w3.org/2000/svg">
<rect width="240" height="240" fill="#20367F"/>
<path d="M64.6666 94.1539L83.0965 80.6426L75.5112 74.0647H64.6666V63.2793H112.964V74.0647H90.2077L112.964 93.3835V106.599L91.0966 87.6353L64.6666 107.606V94.1539ZM112.964 112.238V123.024H64.6666V112.238H112.964ZM64.6666 131.567H112.964V140.575L83.9262 164.694H113.556V175.479H65.2592V166.472L94.2967 142.353H64.6666V131.567Z" fill="white"/>
<path opacity="0.944" fill-rule="evenodd" clip-rule="evenodd" d="M126.775 108.267C127.266 108.267 127.756 108.267 128.247 108.267C133.238 108.656 138.005 109.935 142.551 112.105C144.93 113.286 147.261 114.531 149.545 115.839C156.675 113.975 163.879 113.641 171.158 114.84C179.98 116.086 188.323 118.786 196.189 122.938C197.565 123.702 198.897 124.526 200.186 125.41C200.186 125.55 200.186 125.69 200.186 125.831C198.567 128.905 196.499 131.657 193.98 134.087C190.853 136.772 187.277 138.63 183.253 139.661C181.438 140.15 179.615 140.605 177.784 141.028C172.604 142.02 167.415 142.966 162.218 143.868C159.173 144.484 156.158 145.22 153.173 146.076C156.827 148.559 158.912 152.012 159.431 156.436C159.484 157.592 159.501 158.749 159.484 159.907C162.74 159.202 166.035 158.887 169.37 158.96C173.368 158.922 177.329 159.273 181.254 160.012C181.272 160.151 181.237 160.274 181.149 160.38C177.371 161.778 173.725 163.461 170.211 165.428C168.081 166.682 166.24 168.277 164.69 170.214C163.244 172.527 162.858 175.017 163.533 177.681C164.077 179.857 164.62 182.031 165.163 184.202C164.812 184.202 164.462 184.202 164.111 184.202C161.272 183.799 158.503 183.08 155.803 182.046C153.108 180.887 150.987 179.081 149.44 176.629C148.765 175.209 148.362 173.719 148.23 172.159C142.062 170.758 136.593 168.024 131.823 163.956C131.169 163.354 130.573 162.706 130.035 162.01C130.213 161.898 130.388 161.915 130.561 162.063C135.87 165.622 141.69 167.97 148.02 169.109C151.655 169.662 155.301 169.732 158.958 169.32C154.235 168.955 149.573 168.219 144.97 167.111C139.69 165.803 134.922 163.489 130.666 160.17C127.665 157.657 125.509 154.554 124.198 150.862C119.465 153.184 114.855 155.708 110.368 158.434C110.261 158.361 110.156 158.291 110.052 158.224C110.052 157.663 110.052 157.102 110.052 156.541C110.832 153.474 112.252 150.739 114.312 148.338C117.05 145.388 120.205 143.004 123.777 141.186C125.343 134.633 128.621 129.112 133.611 124.621C135.461 122.995 137.425 121.523 139.501 120.204C137.395 120.695 135.432 121.536 133.611 122.728C133.506 122.798 133.401 122.798 133.295 122.728C132.225 120.499 130.717 118.606 128.773 117.049C125.627 114.647 122.191 112.718 118.466 111.264C118.366 111.189 118.349 111.101 118.414 111.001C120.947 109.298 123.734 108.386 126.775 108.267ZM188.091 124.884C190.056 124.913 192.02 125.001 193.98 125.147C195.262 125.26 196.524 125.47 197.767 125.778C195.864 128.523 193.656 131.012 191.141 133.245C190.227 134.054 189.228 134.737 188.143 135.296C185.057 134.137 181.884 133.804 178.625 134.297C175.758 134.715 173.024 135.556 170.422 136.821C170.137 136.997 170.154 137.084 170.474 137.084C175.133 135.783 179.848 135.521 184.62 136.295C184.942 136.384 185.257 136.49 185.567 136.611C184.046 137.316 182.468 137.877 180.834 138.294C179.505 138.622 178.172 138.938 176.837 139.24C170.968 140.405 165.078 141.457 159.168 142.395C154.261 143.218 149.564 144.691 145.075 146.813C143.227 147.784 141.667 149.099 140.395 150.757C139.221 152.93 139.081 155.173 139.974 157.488C141.34 160.187 143.181 162.518 145.496 164.482C146.461 165.228 147.408 165.999 148.335 166.795C142.824 165.652 137.846 163.373 133.401 159.959C131.237 158.104 129.572 155.878 128.405 153.281C126.609 148.503 127.24 144.086 130.298 140.029C132.786 137.084 135.784 134.823 139.29 133.245C141.86 132.05 144.525 131.173 147.284 130.616C145.964 132.338 144.842 134.179 143.918 136.137C144.226 136.142 144.506 136.054 144.759 135.875C150.228 132.755 155.662 129.582 161.061 126.356C161.096 126.409 161.131 126.462 161.166 126.514C160.795 128.004 160.515 129.512 160.325 131.037C160.353 131.206 160.441 131.328 160.588 131.405C169.315 127.335 178.483 125.162 188.091 124.884ZM143.287 151.072C147.894 151.76 152.101 153.425 155.908 156.068C157.06 156.975 158.025 158.044 158.8 159.276C158.938 159.512 159.008 159.757 159.01 160.012C155.618 160.884 152.708 162.566 150.281 165.06C147.931 163.779 145.828 162.166 143.971 160.222C142.655 158.66 141.937 156.854 141.815 154.806C141.856 153.374 142.347 152.13 143.287 151.072Z" fill="white"/>
</svg>
