<svg width="240" height="240" viewBox="0 0 240 240" fill="none" xmlns="http://www.w3.org/2000/svg">
<rect width="240" height="240" fill="#20367F"/>
<path d="M93.5863 115.759V90.9931H112.001V95.7942H99.1168V100.838H110.937V105.64H99.1168V110.957H112.274V115.759H93.5863ZM115.991 115.759V90.9931H120.61L132.977 105.883V90.6892H138.508V115.455H133.889L121.521 100.565V115.759H115.991ZM141.053 107.524H146.583C146.583 109.347 148.042 111.383 150.777 111.383C153.512 111.383 155.153 109.468 155.153 106.612V90.9931H160.683V106.612C160.683 112.538 156.733 116.366 150.777 116.366C144.821 116.366 141.114 112.446 141.053 107.524ZM176.964 116.366C169.276 116.366 163.593 110.866 163.593 103.361C163.593 95.855 169.276 90.3549 176.964 90.3549C184.652 90.3549 190.334 95.855 190.334 103.361C190.334 110.866 184.652 116.366 176.964 116.366ZM176.964 111.383C181.461 111.383 184.804 108.01 184.804 103.361C184.804 98.681 181.461 95.3384 176.964 95.3384C172.466 95.3384 169.124 98.681 169.124 103.361C169.124 108.01 172.466 111.383 176.964 111.383ZM213.757 90.9931L204.489 107.979V115.759H198.959V107.979L189.691 90.9931H196.011L201.967 102.692L207.893 90.9931H213.757ZM80.8572 119.279C87.8793 119.279 93.1266 123.562 93.4739 129.542H86.2202C85.7958 126.803 83.7509 125.144 80.3942 125.144C77.1146 125.144 75.3012 126.456 75.3012 128.346C75.3012 130.7 77.732 131.51 83.8667 132.783C91.1203 134.288 93.5896 137.876 93.5896 142.583C93.5896 148.602 87.9179 152.268 80.8958 152.268C73.1406 152.268 67.4689 148.062 67.1602 141.349H74.3752C74.7611 144.358 77.3847 146.365 81.3974 146.365C84.2525 146.365 86.3746 144.937 86.3746 142.892C86.3746 140.384 84.2525 139.381 78.658 138.339C71.8288 137.066 68.1248 134.25 68.1248 128.346C68.1248 122.675 73.7579 119.279 80.8572 119.279ZM131.371 120.051H138.548L129.481 151.496H122.382L116.748 131.78L111.115 151.496H104.016L94.9491 120.051H102.473L107.874 140.616L113.276 120.051H120.568L125.931 140.539L131.371 120.051ZM141.874 120.051H148.896V151.496H141.874V120.051ZM154.459 151.496V120.051H160.053L170.895 137.645L181.737 120.051H187.331V151.496H180.309V134.25L173.017 146.326H168.773L161.481 134.25V151.496H154.459Z" fill="white"/>
<path opacity="0.944" fill-rule="evenodd" clip-rule="evenodd" d="M38.0853 78C38.44 78 38.7947 78 39.1494 78C42.756 78.2811 46.2017 79.2059 49.4865 80.7743C51.2061 81.6275 52.8909 82.5269 54.541 83.4726C59.6941 82.1251 64.9006 81.8844 70.1607 82.7505C76.5362 83.6512 82.5662 85.602 88.2506 88.6031C89.2449 89.1554 90.2077 89.7508 91.1389 90.3893C91.1389 90.4906 91.1389 90.592 91.1389 90.6933C89.9692 92.9151 88.4744 94.904 86.6544 96.66C84.3946 98.6008 81.8103 99.9437 78.9016 100.688C77.5902 101.042 76.2727 101.371 74.9492 101.677C71.2056 102.393 67.4559 103.077 63.7 103.729C61.4996 104.174 59.3206 104.706 57.1633 105.325C59.8035 107.119 61.311 109.615 61.6858 112.812C61.7238 113.647 61.7365 114.483 61.7238 115.32C64.0768 114.811 66.4585 114.583 68.8685 114.636C71.7578 114.609 74.6208 114.862 77.4575 115.396C77.4704 115.496 77.4451 115.585 77.3814 115.662C74.6508 116.673 72.0159 117.889 69.4766 119.31C67.9368 120.217 66.6066 121.369 65.4862 122.769C64.4415 124.441 64.1628 126.24 64.6501 128.165C65.0433 129.738 65.4359 131.309 65.8282 132.878C65.5749 132.878 65.3215 132.878 65.0681 132.878C63.0166 132.587 61.015 132.067 59.0635 131.32C57.1164 130.482 55.5836 129.178 54.465 127.405C53.9774 126.379 53.686 125.302 53.5909 124.175C49.1335 123.162 45.1811 121.186 41.7337 118.246C41.261 117.812 40.8302 117.343 40.4415 116.84C40.5698 116.759 40.6965 116.772 40.8216 116.878C44.6584 119.45 48.8642 121.148 53.4389 121.971C56.0661 122.37 58.701 122.42 61.3437 122.123C57.9309 121.86 54.5612 121.327 51.2347 120.527C47.4188 119.581 43.9731 117.909 40.8976 115.51C38.7289 113.694 37.1708 111.452 36.2231 108.783C32.8024 110.462 29.4707 112.286 26.228 114.256C26.1507 114.203 26.0747 114.153 26 114.104C26 113.698 26 113.293 26 112.888C26.5636 110.671 27.5897 108.695 29.0783 106.959C31.0569 104.827 33.3371 103.105 35.9191 101.791C37.0509 97.0551 39.4198 93.0647 43.0258 89.8193C44.363 88.6442 45.7819 87.5801 47.2823 86.6269C45.7607 86.9819 44.3419 87.59 43.0258 88.4511C42.9498 88.5018 42.8738 88.5018 42.7978 88.4511C42.0238 86.84 40.9344 85.4719 39.5294 84.3467C37.2558 82.6108 34.7729 81.2173 32.0806 80.1662C32.0084 80.1117 31.9957 80.0483 32.0426 79.9762C33.8738 78.7451 35.888 78.0864 38.0853 78ZM82.398 90.0093C83.8186 90.0305 85.2375 90.0938 86.6544 90.1993C87.5805 90.2808 88.4926 90.4329 89.3907 90.6553C88.016 92.6388 86.4199 94.4377 84.6022 96.0519C83.9419 96.6362 83.2199 97.1302 82.436 97.5341C80.2053 96.6962 77.9124 96.4555 75.5573 96.812C73.4854 97.1141 71.5092 97.7222 69.6286 98.6362C69.4226 98.763 69.4353 98.8263 69.6666 98.8262C73.0333 97.8863 76.4411 97.6963 79.8897 98.2561C80.1223 98.3206 80.3503 98.3966 80.5738 98.4842C79.4749 98.9941 78.3347 99.3995 77.1534 99.7003C76.1929 99.938 75.2301 100.166 74.2651 100.384C70.0235 101.226 65.767 101.987 61.4958 102.665C57.9498 103.26 54.5548 104.324 51.3107 105.857C49.9751 106.559 48.8477 107.509 47.9283 108.707C47.0801 110.278 46.9787 111.899 47.6243 113.572C48.6116 115.522 49.9417 117.207 51.6147 118.626C52.3128 119.166 52.9968 119.723 53.6669 120.298C49.6841 119.472 46.0863 117.825 42.8738 115.358C41.3105 114.017 40.107 112.408 39.2634 110.531C37.9656 107.079 38.4217 103.886 40.6316 100.954C42.4297 98.8263 44.5959 97.1921 47.1302 96.0519C48.9876 95.1879 50.9131 94.5545 52.9069 94.1517C51.953 95.3964 51.1422 96.7266 50.4746 98.1421C50.6969 98.1452 50.8996 98.0819 51.0827 97.9521C55.0347 95.6976 58.9618 93.4046 62.8639 91.0734C62.8892 91.1114 62.9146 91.1494 62.9399 91.1874C62.6718 92.2643 62.469 93.3537 62.3319 94.4557C62.3523 94.5779 62.4157 94.6666 62.5219 94.7218C68.829 91.7808 75.4544 90.2099 82.398 90.0093ZM50.0185 108.935C53.3478 109.432 56.3881 110.636 59.1395 112.546C59.9726 113.201 60.6693 113.974 61.2297 114.864C61.3292 115.035 61.3799 115.212 61.3818 115.396C58.9298 116.026 56.8269 117.242 55.0731 119.044C53.3749 118.118 51.8547 116.953 50.5126 115.548C49.562 114.419 49.0426 113.114 48.9544 111.634C48.9845 110.599 49.3393 109.7 50.0185 108.935Z" fill="white"/>
<path d="M110.109 158.203C110.109 159.797 111.539 161.711 115.047 162.125L114.172 163.938C111.609 163.586 109.852 162.461 108.922 160.977C107.984 162.461 106.234 163.586 103.703 163.938L102.828 162.125C106.305 161.711 107.734 159.789 107.734 158.203V157.547H110.109V158.203ZM102.375 166.688V164.859H115.453V166.688H109.984V171.5H107.75V166.688H102.375ZM120.219 157.906C121.336 157.898 122.32 158.305 123.008 158.984H126.109V157.156H128.344V165.531H126.109V163.922H122.992C122.305 164.586 121.32 164.992 120.219 164.984C118.039 164.992 116.359 163.484 116.375 161.453C116.359 159.391 118.039 157.898 120.219 157.906ZM118.438 168.656C118.438 166.859 120.352 165.805 123.391 165.812C126.453 165.805 128.383 166.859 128.391 168.656C128.383 170.445 126.453 171.516 123.391 171.5C120.352 171.516 118.438 170.445 118.438 168.656ZM118.5 161.453C118.5 162.477 119.211 163.094 120.219 163.094C121.195 163.094 121.891 162.477 121.891 161.453C121.891 160.383 121.195 159.82 120.219 159.828C119.211 159.82 118.5 160.383 118.5 161.453ZM120.641 168.656C120.633 169.414 121.602 169.766 123.391 169.766C125.25 169.766 126.18 169.414 126.188 168.656C126.18 167.875 125.25 167.523 123.391 167.516C121.602 167.523 120.633 167.875 120.641 168.656ZM123.961 162.141H126.109V160.766H123.961C124.008 160.984 124.031 161.219 124.031 161.453C124.031 161.688 124.008 161.922 123.961 162.141ZM136.562 157.344C139.898 157.352 141.82 158.211 141.828 159.781C141.82 161.375 139.898 162.227 136.562 162.234C133.219 162.227 131.289 161.375 131.297 159.781C131.289 158.211 133.219 157.352 136.562 157.344ZM130.031 164.594V162.812H143.109V164.594H130.031ZM131.516 171.422V167.516H139.312V166.906H131.516V165.281H141.547V169.078H133.734V169.734H141.891V171.422H131.516ZM133.656 159.781C133.648 160.391 134.547 160.578 136.562 160.594C138.602 160.578 139.5 160.391 139.5 159.781C139.5 159.25 138.602 158.984 136.562 158.984C134.547 158.984 133.648 159.25 133.656 159.781ZM160.516 162.891V164.656H147.438V162.891H160.516ZM147.984 160.891C150.562 160.75 151.883 160.055 152.383 159.344H148.625V157.594H159.328V159.344H155.531C156.031 160.062 157.367 160.75 159.984 160.891L159.281 162.609C156.562 162.422 154.805 161.617 153.953 160.484C153.102 161.617 151.367 162.422 148.672 162.609L147.984 160.891ZM148.922 171.422V167.516H156.719V166.906H148.922V165.297H158.953V169.078H151.141V169.734H159.297V171.422H148.922ZM173.406 157.156V164.922H171.172V162.156H168.781V160.359H171.172V157.156H173.406ZM161.391 163.562C164.602 162.812 166.047 161.414 166.32 159.719H162.156V157.938H168.766C168.766 161.82 166.609 164.227 162.219 165.312L161.391 163.562ZM163.75 171.344V165.5H166V166.766H171.172V165.5H173.406V171.344H163.75ZM166 169.578H171.172V168.5H166V169.578ZM187.562 157.156V171.5H185.453V157.156H187.562ZM174.859 166.969C177.688 165.297 178.875 163.359 179.156 160.625H175.703V158.828H181.375C181.375 160.172 181.25 161.422 180.945 162.578H182.406V157.469H184.5V170.891H182.406V164.359H180.281C179.477 165.984 178.164 167.375 176.125 168.547L174.859 166.969Z" fill="white"/>
</svg>
