<svg width="143" height="126" viewBox="0 0 143 126" fill="none" xmlns="http://www.w3.org/2000/svg">
<path d="M6.66658 35.1539L25.0965 21.6426L17.5112 15.0647H6.66658V4.27931L54.9637 4.27931V15.0647H32.2077L54.9637 34.3835V47.5986L33.0966 28.6353L6.66658 48.606V35.1539ZM54.9637 53.2385V64.0238H6.66658V53.2385H54.9637ZM6.66658 72.5675H54.9637V81.575L25.9262 105.694H55.5563V116.479H7.25918V107.472L36.2967 83.3529H6.66658V72.5675Z" fill="white"/>
<path opacity="0.944" fill-rule="evenodd" clip-rule="evenodd" d="M68.7748 49.2666C69.2656 49.2666 69.7563 49.2666 70.2472 49.2666C75.2377 49.6556 80.0055 50.9352 84.5507 53.1054C86.9302 54.286 89.2614 55.5305 91.5447 56.8391C98.6751 54.9745 105.879 54.6415 113.158 55.8399C121.98 57.0862 130.323 59.7856 138.189 63.9382C139.565 64.7024 140.897 65.5263 142.186 66.4098C142.186 66.55 142.186 66.6903 142.186 66.8305C140.567 69.9048 138.499 72.6568 135.98 75.0866C132.853 77.7722 129.277 79.6303 125.253 80.6608C123.438 81.1495 121.615 81.6052 119.784 82.028C114.604 83.0199 109.415 83.9665 104.218 84.8677C101.173 85.4837 98.1583 86.2199 95.1732 87.0763C98.8265 89.5592 100.912 93.0124 101.431 97.4359C101.484 98.5923 101.501 99.7492 101.484 100.907C104.74 100.202 108.035 99.8868 111.37 99.96C115.368 99.9222 119.329 100.273 123.254 101.012C123.272 101.151 123.237 101.274 123.149 101.38C119.371 102.778 115.725 104.461 112.211 106.428C110.081 107.682 108.24 109.277 106.69 111.214C105.244 113.527 104.858 116.017 105.533 118.681C106.077 120.857 106.62 123.031 107.163 125.202C106.812 125.202 106.462 125.202 106.111 125.202C103.272 124.799 100.503 124.08 97.8025 123.046C95.1083 121.887 92.9873 120.081 91.4396 117.629C90.7648 116.209 90.3616 114.719 90.2301 113.159C84.0623 111.758 78.5933 109.024 73.8231 104.956C73.169 104.354 72.573 103.706 72.0351 103.01C72.2126 102.898 72.3879 102.915 72.561 103.063C77.87 106.622 83.6897 108.97 90.0197 110.109C93.6549 110.662 97.301 110.732 100.958 110.32C96.2354 109.955 91.5727 109.219 86.9697 108.111C81.6897 106.803 76.9218 104.489 72.6662 101.17C69.6654 98.6569 67.5093 95.5543 66.198 91.8617C61.4648 94.184 56.8548 96.7082 52.3678 99.4342C52.2607 99.3613 52.1556 99.2912 52.0522 99.2238C52.0522 98.6629 52.0522 98.1019 52.0522 97.541C52.8321 94.474 54.2519 91.7395 56.3118 89.3375C59.0495 86.3879 62.2047 84.004 65.7773 82.1858C67.3435 75.6334 70.6214 70.1118 75.611 65.621C77.4613 63.995 79.4246 62.5226 81.5007 61.2037C79.3954 61.695 77.4321 62.5364 75.611 63.7279C75.5058 63.7981 75.4007 63.7981 75.2955 63.7279C74.2245 61.4987 72.7171 59.6055 70.7731 58.0486C67.627 55.6466 64.1914 53.7184 60.4661 52.264C60.3661 52.1886 60.3486 52.1009 60.4135 52.0011C62.9472 50.2976 65.7343 49.3861 68.7748 49.2666ZM130.091 65.8839C132.056 65.9133 134.02 66.0009 135.98 66.1469C137.262 66.2597 138.524 66.4701 139.767 66.7779C137.864 69.5225 135.656 72.0115 133.141 74.2452C132.227 75.0537 131.228 75.7373 130.143 76.2961C127.057 75.1368 123.884 74.8037 120.625 75.2969C117.758 75.715 115.024 76.5564 112.422 77.8211C112.137 77.9965 112.154 78.0841 112.474 78.084C117.133 76.7835 121.848 76.5205 126.62 77.2952C126.942 77.3844 127.257 77.4896 127.567 77.6107C126.046 78.3164 124.468 78.8773 122.834 79.2935C121.505 79.6224 120.172 79.9379 118.837 80.2401C112.968 81.4053 107.078 82.457 101.168 83.3953C96.2614 84.2185 91.5638 85.6909 87.0749 87.8125C85.2269 88.7839 83.6669 90.0986 82.3947 91.7565C81.221 93.9295 81.0807 96.1732 81.974 98.4876C83.3401 101.187 85.1806 103.518 87.4956 105.482C88.4615 106.228 89.408 106.999 90.3353 107.795C84.8242 106.652 79.8459 104.373 75.4007 100.959C73.2375 99.104 71.5723 96.8778 70.4049 94.2807C68.6092 89.5029 69.2403 85.0856 72.2981 81.0289C74.7861 78.0841 77.7836 75.8229 81.2904 74.2452C83.8604 73.0496 86.5247 72.1732 89.2835 71.6159C87.9636 73.3382 86.8417 75.1787 85.918 77.1375C86.2256 77.1417 86.506 77.0541 86.7594 76.8745C92.2278 73.7549 97.6618 70.5821 103.061 67.3564C103.096 67.409 103.131 67.4615 103.166 67.5141C102.795 69.0042 102.515 70.5117 102.325 72.0366C102.353 72.2056 102.441 72.3283 102.588 72.4047C111.315 68.3352 120.483 66.1616 130.091 65.8839ZM85.2869 92.072C89.8936 92.7597 94.1006 94.425 97.9077 97.0678C99.0604 97.9747 100.025 99.0439 100.8 100.276C100.938 100.512 101.008 100.757 101.01 101.012C97.6175 101.884 94.7077 103.566 92.281 106.06C89.9312 104.779 87.8277 103.166 85.9706 101.222C84.6552 99.6597 83.9365 97.8541 83.8145 95.8057C83.8562 94.3743 84.347 93.1298 85.2869 92.072Z" fill="white"/>
</svg>
