<svg width="240" height="240" viewBox="0 0 240 240" fill="none" xmlns="http://www.w3.org/2000/svg">
<rect width="240" height="240" fill="#20367F"/>
<path d="M31.6113 140.711L46.7767 129.593L40.535 124.18H31.6113V115.305H71.3535V124.18H52.6283L71.3535 140.077V150.951L53.3598 135.347L31.6113 151.78V140.711ZM71.3535 155.592V164.467H31.6113V155.592H71.3535ZM31.6113 171.497H71.3535V178.909L47.4594 198.756H71.8411V207.631H32.0989V200.219L55.993 180.372H31.6113V171.497Z" fill="white"/>
<path opacity="0.944" fill-rule="evenodd" clip-rule="evenodd" d="M82.5925 152.717C82.9964 152.717 83.4002 152.717 83.8041 152.717C87.9106 153.037 91.8339 154.09 95.574 155.876C97.532 156.847 99.4503 157.871 101.329 158.948C107.196 157.414 113.125 157.14 119.114 158.126C126.373 159.152 133.239 161.373 139.711 164.79C140.843 165.419 141.94 166.097 143 166.824C143 166.939 143 167.054 143 167.17C141.668 169.7 139.966 171.964 137.894 173.964C135.321 176.173 132.378 177.702 129.066 178.55C127.573 178.952 126.073 179.327 124.566 179.675C120.304 180.492 116.034 181.27 111.758 182.012C109.252 182.519 106.771 183.125 104.315 183.829C107.321 185.873 109.038 188.714 109.464 192.354C109.508 193.306 109.522 194.258 109.508 195.21C112.187 194.63 114.899 194.371 117.643 194.431C120.932 194.4 124.192 194.688 127.422 195.297C127.437 195.411 127.408 195.512 127.336 195.599C124.226 196.75 121.226 198.135 118.335 199.754C116.582 200.785 115.067 202.098 113.791 203.691C112.602 205.595 112.285 207.644 112.839 209.836C113.287 211.627 113.734 213.415 114.181 215.202C113.892 215.202 113.604 215.202 113.315 215.202C110.98 214.87 108.701 214.278 106.479 213.427C104.262 212.474 102.516 210.988 101.243 208.97C100.687 207.802 100.356 206.576 100.247 205.292C95.1721 204.139 90.6718 201.889 86.7466 198.542C86.2083 198.047 85.7179 197.513 85.2753 196.941C85.4213 196.848 85.5656 196.863 85.708 196.984C90.0767 199.913 94.8655 201.845 100.074 202.783C103.066 203.237 106.066 203.295 109.075 202.956C105.189 202.656 101.352 202.05 97.5645 201.138C93.2198 200.062 89.2964 198.158 85.7946 195.426C83.3253 193.359 81.5512 190.806 80.4721 187.767C76.5774 189.678 72.7839 191.755 69.0917 193.998C69.0036 193.938 68.917 193.881 68.832 193.825C68.832 193.364 68.832 192.902 68.832 192.441C69.4737 189.917 70.642 187.667 72.337 185.69C74.5899 183.263 77.1862 181.301 80.126 179.805C81.4147 174.413 84.112 169.87 88.2178 166.175C89.7404 164.837 91.3559 163.625 93.0642 162.54C91.3318 162.944 89.7163 163.636 88.2178 164.617C88.1313 164.675 88.0447 164.675 87.9582 164.617C87.0769 162.782 85.8365 161.225 84.2368 159.943C81.648 157.967 78.821 156.38 75.7555 155.184C75.6733 155.121 75.6588 155.049 75.7123 154.967C77.7972 153.565 80.0906 152.815 82.5925 152.717ZM133.047 166.391C134.665 166.415 136.281 166.487 137.894 166.607C138.948 166.7 139.987 166.873 141.009 167.127C139.444 169.385 137.627 171.433 135.557 173.271C134.805 173.936 133.983 174.499 133.091 174.959C130.551 174.005 127.94 173.731 125.258 174.137C122.899 174.481 120.649 175.173 118.508 176.214C118.274 176.358 118.288 176.43 118.551 176.43C122.385 175.36 126.265 175.143 130.191 175.781C130.456 175.854 130.716 175.941 130.97 176.041C129.719 176.621 128.421 177.083 127.076 177.425C125.982 177.696 124.886 177.955 123.787 178.204C118.958 179.163 114.111 180.028 109.248 180.8C105.21 181.478 101.345 182.689 97.6511 184.435C96.1304 185.235 94.8467 186.316 93.7999 187.681C92.834 189.469 92.7186 191.315 93.4537 193.219C94.5778 195.441 96.0923 197.359 97.9972 198.975C98.7921 199.589 99.5709 200.223 100.334 200.879C95.799 199.938 91.7026 198.063 88.0447 195.253C86.2647 193.727 84.8944 191.895 83.9339 189.758C82.4562 185.826 82.9755 182.191 85.4917 178.853C87.539 176.43 90.0055 174.569 92.8912 173.271C95.0059 172.287 97.1984 171.566 99.4685 171.108C98.3824 172.525 97.4592 174.039 96.6991 175.651C96.9522 175.655 97.1829 175.582 97.3914 175.435C101.891 172.868 106.363 170.257 110.806 167.603C110.835 167.646 110.863 167.689 110.892 167.732C110.587 168.959 110.356 170.199 110.2 171.454C110.223 171.593 110.295 171.694 110.416 171.757C117.598 168.408 125.141 166.619 133.047 166.391ZM96.1798 187.94C99.9705 188.506 103.432 189.876 106.565 192.051C107.514 192.797 108.307 193.677 108.945 194.691C109.058 194.885 109.116 195.087 109.118 195.297C106.326 196.014 103.932 197.399 101.935 199.451C100.001 198.396 98.2705 197.069 96.7424 195.47C95.66 194.184 95.0686 192.698 94.9682 191.013C95.0025 189.835 95.4064 188.811 96.1798 187.94Z" fill="white"/>
<path d="M165.164 28.3047C165.164 30.6953 167.309 33.5664 172.57 34.1875L171.258 36.9062C167.414 36.3789 164.777 34.6914 163.383 32.4648C161.977 34.6914 159.352 36.3789 155.555 36.9062L154.242 34.1875C159.457 33.5664 161.602 30.6836 161.602 28.3047V27.3203H165.164V28.3047ZM153.562 41.0312V38.2891H173.18V41.0312H164.977V48.25H161.625V41.0312H153.562ZM180.328 27.8594C182.004 27.8477 183.48 28.457 184.512 29.4766H189.164V26.7344H192.516V39.2969H189.164V36.8828H184.488C183.457 37.8789 181.98 38.4883 180.328 38.4766C177.059 38.4883 174.539 36.2266 174.562 33.1797C174.539 30.0859 177.059 27.8477 180.328 27.8594ZM177.656 43.9844C177.656 41.2891 180.527 39.707 185.086 39.7188C189.68 39.707 192.574 41.2891 192.586 43.9844C192.574 46.668 189.68 48.2734 185.086 48.25C180.527 48.2734 177.656 46.668 177.656 43.9844ZM177.75 33.1797C177.75 34.7148 178.816 35.6406 180.328 35.6406C181.793 35.6406 182.836 34.7148 182.836 33.1797C182.836 31.5742 181.793 30.7305 180.328 30.7422C178.816 30.7305 177.75 31.5742 177.75 33.1797ZM180.961 43.9844C180.949 45.1211 182.402 45.6484 185.086 45.6484C187.875 45.6484 189.27 45.1211 189.281 43.9844C189.27 42.8125 187.875 42.2852 185.086 42.2734C182.402 42.2852 180.949 42.8125 180.961 43.9844ZM185.941 34.2109H189.164V32.1484H185.941C186.012 32.4766 186.047 32.8281 186.047 33.1797C186.047 33.5312 186.012 33.8828 185.941 34.2109ZM204.844 27.0156C209.848 27.0273 212.73 28.3164 212.742 30.6719C212.73 33.0625 209.848 34.3398 204.844 34.3516C199.828 34.3398 196.934 33.0625 196.945 30.6719C196.934 28.3164 199.828 27.0273 204.844 27.0156ZM195.047 37.8906V35.2188H214.664V37.8906H195.047ZM197.273 48.1328V42.2734H208.969V41.3594H197.273V38.9219H212.32V44.6172H200.602V45.6016H212.836V48.1328H197.273ZM200.484 30.6719C200.473 31.5859 201.82 31.8672 204.844 31.8906C207.902 31.8672 209.25 31.5859 209.25 30.6719C209.25 29.875 207.902 29.4766 204.844 29.4766C201.82 29.4766 200.473 29.875 200.484 30.6719ZM173.18 61.3359V63.9844H153.562V61.3359H173.18ZM154.383 58.3359C158.25 58.125 160.23 57.082 160.98 56.0156H155.344V53.3906H171.398V56.0156H165.703C166.453 57.0938 168.457 58.125 172.383 58.3359L171.328 60.9141C167.25 60.6328 164.613 59.4258 163.336 57.7266C162.059 59.4258 159.457 60.6328 155.414 60.9141L154.383 58.3359ZM155.789 74.1328V68.2734H167.484V67.3594H155.789V64.9453H170.836V70.6172H159.117V71.6016H171.352V74.1328H155.789ZM192.516 52.7344V64.3828H189.164V60.2344H185.578V57.5391H189.164V52.7344H192.516ZM174.492 62.3438C179.309 61.2188 181.477 59.1211 181.887 56.5781H175.641V53.9062H185.555C185.555 59.7305 182.32 63.3398 175.734 64.9688L174.492 62.3438ZM178.031 74.0156V65.25H181.406V67.1484H189.164V65.25H192.516V74.0156H178.031ZM181.406 71.3672H189.164V69.75H181.406V71.3672ZM213.75 52.7344V74.25H210.586V52.7344H213.75ZM194.695 67.4531C198.938 64.9453 200.719 62.0391 201.141 57.9375H195.961V55.2422H204.469C204.469 57.2578 204.281 59.1328 203.824 60.8672H206.016V53.2031H209.156V73.3359H206.016V63.5391H202.828C201.621 65.9766 199.652 68.0625 196.594 69.8203L194.695 67.4531Z" fill="white"/>
</svg>
